Coordinates
version=1
nRows=16
nColumns=38
inDegrees=no

Units are S.I. units (second, meters, Newtons, ...)
If the header above contains a line with 'inDegrees', this indicates whether rotational values are in degrees (yes) or radians (no).

endheader
time	pelvis_tilt	pelvis_list	pelvis_rotation	pelvis_tx	pelvis_ty	pelvis_tz	hip_flexion_r	hip_adduction_r	hip_rotation_r	knee_angle_r	ankle_angle_r	subtalar_angle_r	mtp_angle_r	hip_flexion_l	hip_adduction_l	hip_rotation_l	knee_angle_l	ankle_angle_l	subtalar_angle_l	mtp_angle_l	lumbar_extension	lumbar_bending	lumbar_rotation	arm_flex_r	arm_add_r	arm_rot_r	elbow_flex_r	pro_sup_r	wrist_flex_r	wrist_dev_r	arm_flex_l	arm_add_l	arm_rot_l	elbow_flex_l	pro_sup_l	wrist_flex_l	wrist_dev_l
8.3625	-0.206277	0.00394857	-3.07515	-0.213055	0.961407	0.0317053	0.244816	-0.00691102	-0.0721082	0.246745	-0.0552572	0	0	-0.353077	0.0333878	0.0155535	0.364547	0.420758	0	0	-0.452796	0.0918371	-0.128174	0.135397	-0.306179	1.46216	0.413237	0.0629733	0	0	0.564181	-0.381544	1.27831	0.735529	0.34765	0	0
8.37249	-0.207618	0.00557774	-3.06802	-0.214997	0.96135	0.0301758	0.241089	-0.00584693	-0.081739	0.262395	-0.0651399	0	0	-0.355392	0.0248837	0.0182726	0.382644	0.417254	0	0	-0.451395	0.0960965	-0.131522	0.138373	-0.304535	1.46208	0.413157	0.0643577	0	0	0.553354	-0.377312	1.29498	0.726396	0.333691	0	0
8.38248	-0.208823	0.00728039	-3.06106	-0.217061	0.961385	0.0285336	0.23719	-0.00458082	-0.091443	0.278039	-0.0730779	0	0	-0.356274	0.0159418	0.0201118	0.4028	0.411082	0	0	-0.449677	0.100214	-0.134701	0.141663	-0.302934	1.462	0.413344	0.0660963	0	0	0.541005	-0.373395	1.30899	0.717687	0.319737	0	0
8.39247	-0.209853	0.00906091	-3.05438	-0.219222	0.961515	0.0267744	0.233167	-0.0030535	-0.101006	0.293581	-0.0784583	0	0	-0.355451	0.00655396	0.0208602	0.425295	0.401901	0	0	-0.447671	0.104151	-0.137576	0.14532	-0.301412	1.46191	0.413838	0.0682169	0	0	0.52722	-0.369799	1.32017	0.709484	0.305966	0	0
8.40246	-0.210684	0.0109297	-3.04807	-0.221448	0.961738	0.0248959	0.229023	-0.00119687	-0.110233	0.308875	-0.0808664	0	0	-0.352665	-0.0032982	0.020329	0.450393	0.389388	0	0	-0.445429	0.107875	-0.139991	0.149397	-0.300014	1.46183	0.414679	0.0707423	0	0	0.512168	-0.366491	1.32865	0.701813	0.292396	0	0
8.41246	-0.211302	0.0129006	-3.04224	-0.223703	0.962056	0.0228979	0.224719	0.00106235	-0.118944	0.323721	-0.0801307	0	0	-0.347687	-0.013637	0.0183808	0.478314	0.373263	0	0	-0.443016	0.111356	-0.14178	0.15395	-0.298783	1.46174	0.415908	0.0736948	0	0	0.496071	-0.363406	1.33473	0.694655	0.278932	0	0
8.42245	-0.211712	0.0149885	-3.03695	-0.225951	0.962467	0.0207843	0.220183	0.00379152	-0.126993	0.337875	-0.0763333	0	0	-0.340332	-0.0244829	0.0149613	0.509216	0.353344	0	0	-0.440517	0.114578	-0.142793	0.159036	-0.297766	1.46166	0.417566	0.0770998	0	0	0.479184	-0.360474	1.33879	0.687973	0.265422	0	0
8.43244	-0.211934	0.0172024	-3.03224	-0.228152	0.962967	0.0185648	0.215313	0.00703576	-0.134287	0.351064	-0.069785	0	0	-0.330468	-0.035843	0.0101278	0.543179	0.329582	0	0	-0.438021	0.117534	-0.142917	0.164713	-0.297007	1.46157	0.419692	0.0809885	0	0	0.461765	-0.357627	1.34123	0.681728	0.251704	0	0
8.44243	-0.212003	0.01954	-3.0281	-0.230267	0.963549	0.0162554	0.209996	0.010806	-0.140794	0.363023	-0.0609602	0	0	-0.318034	-0.0476971	0.00406656	0.580191	0.302115	0	0	-0.43562	0.120223	-0.142099	0.171032	-0.296547	1.46148	0.42232	0.0853969	0	0	0.444064	-0.354812	1.34245	0.675889	0.237645	0	0
8.45242	-0.211963	0.0219867	-3.02448	-0.232262	0.964202	0.0138778	0.204127	0.0150777	-0.146544	0.37353	-0.0504096	0	0	-0.303043	-0.059987	-0.00291145	0.620133	0.271294	0	0	-0.433396	0.122656	-0.140343	0.178042	-0.296423	1.4614	0.425477	0.09037	0	0	0.426302	-0.351996	1.34277	0.670433	0.223172	0	0
8.46241	-0.21186	0.0245184	-3.0213	-0.234102	0.96491	0.0114582	0.197627	0.0197984	-0.151623	0.382439	-0.0386724	0	0	-0.285583	-0.0726164	-0.0104028	0.662773	0.237672	0	0	-0.431419	0.124853	-0.137712	0.185783	-0.296664	1.46131	0.429183	0.0959706	0	0	0.408667	-0.349157	1.34251	0.665334	0.20829	0	0
8.4724	-0.211746	0.0271029	-3.01846	-0.23576	0.965656	0.00902491	0.190441	0.024897	-0.156137	0.389682	-0.0262334	0	0	-0.265816	-0.0854509	-0.017961	0.707768	0.201961	0	0	-0.429751	0.126841	-0.134311	0.194287	-0.297292	1.46122	0.43344	0.102257	0	0	0.391307	-0.346288	1.34188	0.660566	0.193084	0	0
8.48239	-0.211685	0.0297026	-3.01584	-0.237212	0.966424	0.00660692	0.182528	0.0302929	-0.160185	0.395257	-0.0135062	0	0	-0.243982	-0.0983261	-0.0251563	0.754665	0.164988	0	0	-0.428459	0.128654	-0.130268	0.203578	-0.298329	1.46113	0.438233	0.109262	0	0	0.374335	-0.343384	1.34107	0.656095	0.177709	0	0
8.49238	-0.211757	0.0322783	-3.01335	-0.238441	0.967202	0.00423133	0.17384	0.0359047	-0.163842	0.399205	-0.000824896	0	0	-0.220406	-0.111059	-0.0316296	0.802909	0.12763	0	0	-0.427625	0.130324	-0.125718	0.213676	-0.299786	1.46103	0.44353	0.11698	0	0	0.357836	-0.340442	1.34021	0.651883	0.162379	0	0
8.50237	-0.212059	0.034792	-3.01093	-0.239436	0.967983	0.00192175	0.164324	0.0416573	-0.167151	0.401603	0.0115514	0	0	-0.195482	-0.123465	-0.0371347	0.851855	0.0907735	0	0	-0.427349	0.131886	-0.120779	0.224594	-0.301672	1.46094	0.449287	0.125371	0	0	0.341871	-0.337452	1.33937	0.647888	0.147329	0	0
8.51237	-0.212694	0.037205	-3.00852	-0.240194	0.968767	-0.000303337	0.153922	0.0474824	-0.170119	0.402542	0.0234284	0	0	-0.169657	-0.135364	-0.0415556	0.900801	0.0552985	0	0	-0.427737	0.13336	-0.11554	0.236332	-0.303988	1.46084	0.455452	0.134367	0	0	0.326482	-0.334396	1.33862	0.644066	0.132799	0	0
